<?xml version="1.0" encoding="utf-8"?>
<!-- Generator: Adobe Illustrator 21.1.0, SVG Export Plug-In . SVG Version: 6.00 Build 0)  -->
<svg version="1.1" id="Layer_1" xmlns="http://www.w3.org/2000/svg" xmlns:xlink="http://www.w3.org/1999/xlink" x="0px" y="0px"
	 viewBox="0 0 56.69 56.69" style="enable-background:new 0 0 56.69 56.69;" xml:space="preserve">
<style type="text/css">
	.st0{fill:#000000;}
	.st1{fill:#FFFFFF;}
</style>
<title>Metro de Medellín - Línea C</title>
<path class="st0" d="M56.6875,28.3358c0,15.6612-12.6906,28.3518-28.3477,28.3518C12.6946,56.6876,0,43.9969,0,28.3358
	C0,12.7146,12.6946,0,28.3398,0C43.9969,0,56.6875,12.7146,56.6875,28.3358"/>
<path class="st1" d="M37.9825,42.4838c-2.1302,0.5017-4.4354,0.9238-6.6331,0.9238c-9.4241,0-15.9816-4.7101-15.9816-14.5721
	c0-9.9616,6.0997-15.5555,15.9816-15.5555c1.919,0,4.4551,0.3863,6.5814,1.2183l-0.3944,4.921
	c-2.2374-1.2461-4.2441-1.5368-6.3065-1.5368c-6.004,0-9.7623,4.5707-9.7623,10.5429c0,5.9283,3.659,10.3915,9.8819,10.3915
	c2.2933,0,5.0166-0.5056,6.3862-1.2024L37.9825,42.4838z"/>
</svg>
